<svg width="120" height="32" viewBox="0 0 120 32" fill="none" xmlns="http://www.w3.org/2000/svg">
  <path d="M16.832 6.4C20.992 6.4 24.448 8.256 24.448 13.376C24.448 18.496 20.992 20.352 16.832 20.352H12.8V25.6H8V6.4H16.832ZM16.448 16.192C18.432 16.192 19.648 15.296 19.648 13.376C19.648 11.456 18.432 10.56 16.448 10.56H12.8V16.192H16.448Z" fill="#10A37F"/>
  <path d="M35.501 25.856C30.189 25.856 26.285 22.016 26.285 16C26.285 9.984 30.189 6.144 35.501 6.144C40.813 6.144 44.717 9.984 44.717 16C44.717 22.016 40.813 25.856 35.501 25.856ZM35.501 21.696C38.061 21.696 39.789 19.456 39.789 16C39.789 12.544 38.061 10.304 35.501 10.304C32.941 10.304 31.213 12.544 31.213 16C31.213 19.456 32.941 21.696 35.501 21.696Z" fill="#10A37F"/>
  <path d="M55.347 25.856C50.035 25.856 46.131 22.016 46.131 16C46.131 9.984 50.035 6.144 55.347 6.144C60.659 6.144 64.563 9.984 64.563 16C64.563 22.016 60.659 25.856 55.347 25.856ZM55.347 21.696C57.907 21.696 59.635 19.456 59.635 16C59.635 12.544 57.907 10.304 55.347 10.304C52.787 10.304 51.059 12.544 51.059 16C51.059 19.456 52.787 21.696 55.347 21.696Z" fill="#10A37F"/>
  <path d="M67.219 6.4H72.019V10.432H67.219V6.4ZM67.219 11.2H72.019V25.6H67.219V11.2Z" fill="#10A37F"/>
  <path d="M85.058 25.6V15.36C85.058 12.8 83.842 11.008 81.218 11.008C78.594 11.008 77.378 12.8 77.378 15.36V25.6H72.578V11.2H77.378V13.12C78.338 11.712 80.002 10.944 82.114 10.944C86.018 10.944 89.858 13.184 89.858 18.88V25.6H85.058Z" fill="#10A37F"/>
  <path d="M101.314 11.2V15.488H100.098C97.4738 15.488 96.1938 16.832 96.1938 19.456V25.6H91.3938V11.2H96.1938V14.08C96.7698 12.096 98.2338 11.2 100.482 11.2H101.314Z" fill="#10A37F"/>
  <path d="M106.037 25.856C103.669 25.856 101.685 24.32 101.685 21.696C101.685 19.072 103.669 17.536 106.037 17.536H110.517V17.152C110.517 15.36 109.429 14.592 107.637 14.592C106.229 14.592 105.013 15.04 103.925 15.808L102.069 12.608C103.797 11.52 105.845 10.944 108.085 10.944C112.053 10.944 115.189 12.928 115.189 17.216V25.6H110.517V23.68C109.685 24.96 108.149 25.856 106.037 25.856ZM107.317 22.72C108.725 22.72 110.005 22.144 110.517 21.12V20.16H106.549C105.461 20.16 105.077 20.8 105.077 21.44C105.077 22.08 105.461 22.72 107.317 22.72Z" fill="#10A37F"/>
  <path d="M116.947 11.2H121.747V25.6H116.947V11.2Z" fill="#10A37F"/>
  <path d="M116.947 6.4H121.747V10.432H116.947V6.4Z" fill="#10A37F"/>
</svg> 